<svg width="20" height="16" viewBox="0 0 20 16" fill="none" xmlns="http://www.w3.org/2000/svg">
<path d="M18.3437 0.725587H13.4894C12.6779 0.725036 11.8905 1.00088 11.2568 1.50768C10.6231 2.01448 10.1809 2.72201 10.0031 3.51371C9.82487 2.72222 9.38257 2.01495 8.74897 1.50823C8.11536 1.0015 7.32817 0.725491 6.51686 0.725587H1.66623C1.2242 0.725752 0.800322 0.901422 0.487758 1.21399C0.175195 1.52655 -0.000475221 1.95043 -0.000640869 2.39246V10.9275C-0.000475221 11.3695 0.175195 11.7934 0.487758 12.1059C0.800322 12.4185 1.2242 12.5942 1.66623 12.5943H4.78061C8.32936 12.5943 9.38811 13.4412 9.89498 15.1987C9.91936 15.2962 10.0756 15.2962 10.1031 15.1987C10.6137 13.4418 11.6725 12.5943 15.2175 12.5943H18.3319C18.7739 12.5942 19.1978 12.4185 19.5103 12.1059C19.8229 11.7934 19.9986 11.3695 19.9987 10.9275V2.39621C19.9987 1.95567 19.8247 1.53297 19.5145 1.22018C19.2043 0.907385 18.783 0.729839 18.3425 0.726212L18.3437 0.725587ZM8.40248 9.94059C8.40265 9.95656 8.39963 9.9724 8.3936 9.98718C8.38756 10.002 8.37864 10.0154 8.36734 10.0267C8.35605 10.038 8.34262 10.0469 8.32783 10.0529C8.31305 10.059 8.2972 10.062 8.28123 10.0618H2.71498C2.69904 10.0619 2.68323 10.0588 2.66849 10.0528C2.65374 10.0467 2.64034 10.0378 2.62906 10.0265C2.61779 10.0152 2.60886 10.0018 2.60279 9.98708C2.59673 9.97234 2.59365 9.95653 2.59373 9.94059V9.14559C2.59373 9.07996 2.64561 9.02434 2.71498 9.02434H8.28436C8.34998 9.02434 8.40561 9.07621 8.40561 9.14559V9.94059H8.40248ZM8.40248 7.82621C8.40257 7.84216 8.39949 7.85796 8.39342 7.87271C8.38736 7.88746 8.37843 7.90086 8.36716 7.91213C8.35588 7.92341 8.34248 7.93234 8.32773 7.9384C8.31298 7.94446 8.29718 7.94754 8.28123 7.94746H2.71498C2.69904 7.94754 2.68323 7.94446 2.66849 7.9384C2.65374 7.93234 2.64034 7.92341 2.62906 7.91213C2.61779 7.90086 2.60886 7.88746 2.60279 7.87271C2.59673 7.85796 2.59365 7.84216 2.59373 7.82621V7.03121C2.59373 6.96496 2.64561 6.90996 2.71498 6.90996H8.28436C8.34998 6.90996 8.40561 6.96184 8.40561 7.03121V7.82621H8.40248ZM8.40248 5.71184C8.40257 5.72778 8.39949 5.74359 8.39342 5.75833C8.38736 5.77308 8.37843 5.78648 8.36716 5.79776C8.35588 5.80903 8.34248 5.81796 8.32773 5.82403C8.31298 5.83009 8.29718 5.83317 8.28123 5.83309H2.71498C2.69904 5.83317 2.68323 5.83009 2.66849 5.82403C2.65374 5.81796 2.64034 5.80903 2.62906 5.79776C2.61779 5.78648 2.60886 5.77308 2.60279 5.75833C2.59673 5.74359 2.59365 5.72778 2.59373 5.71184V4.91684C2.59373 4.85121 2.64561 4.79559 2.71498 4.79559H8.28436C8.34998 4.79559 8.40561 4.84746 8.40561 4.91684V5.71184H8.40248ZM17.4062 9.93746C17.4063 9.95341 17.4032 9.96921 17.3972 9.98396C17.3911 9.99871 17.3822 10.0121 17.3709 10.0234C17.3596 10.0347 17.3462 10.0436 17.3315 10.0497C17.3167 10.0557 17.3009 10.0588 17.285 10.0587H11.7187C11.7028 10.0588 11.687 10.0557 11.6722 10.0497C11.6575 10.0436 11.6441 10.0347 11.6328 10.0234C11.6215 10.0121 11.6126 9.99871 11.6065 9.98396C11.6005 9.96921 11.5974 9.95341 11.5975 9.93746V9.14246C11.5975 9.07684 11.6494 9.02121 11.7187 9.02121H17.2881C17.3544 9.02121 17.4094 9.07309 17.4094 9.14246V9.93746H17.4062ZM17.4062 7.82309C17.4064 7.83906 17.4034 7.8549 17.3973 7.86968C17.3913 7.88447 17.3824 7.8979 17.3711 7.9092C17.3598 7.92049 17.3464 7.92941 17.3316 7.93545C17.3168 7.94148 17.301 7.9445 17.285 7.94434H11.7187C11.7028 7.94442 11.687 7.94134 11.6722 7.93528C11.6575 7.92921 11.6441 7.92028 11.6328 7.90901C11.6215 7.89773 11.6126 7.88433 11.6065 7.86958C11.6005 7.85484 11.5974 7.83903 11.5975 7.82309V7.02809C11.5975 6.96246 11.6494 6.90684 11.7187 6.90684H17.2881C17.3544 6.90684 17.4094 6.95871 17.4094 7.02809V7.82309H17.4062ZM17.4062 5.70809C17.4063 5.72403 17.4032 5.73984 17.3972 5.75458C17.3911 5.76933 17.3822 5.78273 17.3709 5.79401C17.3596 5.80528 17.3462 5.81421 17.3315 5.82028C17.3167 5.82634 17.3009 5.82942 17.285 5.82934H11.7187C11.7028 5.82942 11.687 5.82634 11.6722 5.82028C11.6575 5.81421 11.6441 5.80528 11.6328 5.79401C11.6215 5.78273 11.6126 5.76933 11.6065 5.75458C11.6005 5.73984 11.5974 5.72403 11.5975 5.70809V4.91621C11.5975 4.85059 11.6494 4.79496 11.7187 4.79496H17.2881C17.3544 4.79496 17.4094 4.84684 17.4094 4.91621V5.70809H17.4062Z" fill="white"/>
</svg>
